<?xml version="1.0" standalone="no"?>
<!DOCTYPE svg PUBLIC "-//W3C//DTD SVG 20010904//EN"
 "http://www.w3.org/TR/2001/REC-SVG-20010904/DTD/svg10.dtd">
<svg version="1.0" xmlns="http://www.w3.org/2000/svg"
 width="1212.000000pt" height="1280.000000pt" viewBox="0 0 1212.000000 1280.000000"
 preserveAspectRatio="xMidYMid meet">
<metadata>
Created by potrace 1.15, written by Peter Selinger 2001-2017
</metadata>
<g transform="translate(0.000000,1280.000000) scale(0.100000,-0.100000)"
fill="#000000" stroke="none">
<path d="M4905 12789 c-1270 -4 -2353 -9 -2405 -12 -77 -3 -106 -9 -152 -31
-92 -43 -155 -134 -178 -256 -7 -35 -10 -1085 -10 -3070 l0 -3018 -213 -7
c-116 -4 -540 -5 -942 -4 -813 4 -795 6 -887 -64 -85 -64 -133 -207 -110 -331
27 -141 -186 79 2936 -3044 2787 -2788 2873 -2874 2945 -2910 71 -35 80 -37
171 -37 91 0 100 2 171 37 72 36 158 122 2945 2910 2493 2495 2875 2880 2898
2929 99 208 24 431 -167 496 -48 16 -125 18 -999 21 l-948 3 0 3027 c0 3251 2
3100 -49 3201 -30 58 -85 109 -150 140 l-56 26 -1245 1 c-685 0 -2284 -3
-3555 -7z"/>
</g>
</svg>
