<svg class="svg-icon" style="width: 1em; height: 1em;vertical-align: middle;fill: currentColor;overflow: hidden;" viewBox="0 0 1024 1024" version="1.1" xmlns="http://www.w3.org/2000/svg"><path d="M494.674253 768.495474V896.135856H399.86299c-36.473247 0-63.932072 27.458825-63.932073 63.932072v47.949054a15.983018 15.983018 0 0 0 15.983018 15.983018h319.660361a15.983018 15.983018 0 0 0 15.983018-15.983018v-45.551601c0-37.208466-28.098146-66.329525-63.932072-66.329525H526.640289v-127.640382a242.302554 242.302554 0 0 0 225.935943-241.791097v-60.31991a17.069863 17.069863 0 1 0-34.139727 0.031966v60.31991c0 114.981832-92.701505 208.482487-206.692389 208.482487s-206.692389-93.532622-206.692389-208.482487v-60.31991a17.069863 17.069863 0 1 0-34.139727 0v60.31991c0 127.960042 98.934882 232.872573 223.762253 241.759131z m160.917025 193.969907V992.033964h-287.694325v-31.966036c0-18.827995 13.138041-31.966036 31.966037-31.966036h223.762252c18.220641 0 31.966036 14.768309 31.966036 34.363489z" fill="#828282" /><path d="M511.744116 0C431.829026 0 366.810108 65.818068 366.810108 146.756072v379.980271c0 80.906037 65.018917 146.756072 144.934008 146.756071s144.934008-65.850034 142.760317-146.756071V146.756072A142.824249 142.824249 0 0 0 511.744116 0zM622.538397 526.704377c0 62.078042-49.707186 112.584379-110.794281 112.584379S398.776144 588.814385 398.776144 526.704377V146.756072c0-62.078042 51.880877-112.584379 112.967972-112.584379S622.538397 84.646064 622.538397 146.756072v379.948305z" fill="#828282" /></svg>